<svg width="54" height="71" viewBox="0 0 54 71" fill="none" xmlns="http://www.w3.org/2000/svg">
<path d="M11.4958 5.04773C12.4663 2.60335 12.9516 1.38116 13.9688 0.69058C14.9861 0 16.3011 0 18.9311 0H27H35.0689C37.6989 0 39.014 0 40.0312 0.69058C41.0484 1.38116 41.5337 2.60335 42.5042 5.04774L49.6513 23.0477C51.6222 28.0115 52.6077 30.4934 51.4174 32.2467C50.2271 34 47.5567 34 42.216 34H11.784C6.44325 34 3.77287 34 2.58259 32.2467C1.39231 30.4934 2.37777 28.0115 4.34869 23.0477L11.4958 5.04773Z" fill="#1570EF"/>
<path fill-rule="evenodd" clip-rule="evenodd" d="M17.4541 42.0036C22.7261 36.6655 31.2739 36.6655 36.5459 42.0036C41.818 47.3417 41.818 55.9964 36.5459 61.3345L29.846 68.1184C28.2799 69.704 25.7201 69.704 24.154 68.1184L17.4541 61.3345C12.182 55.9964 12.182 47.3417 17.4541 42.0036ZM27 55.5745C29.1302 55.5745 30.8571 53.826 30.8571 51.669C30.8571 49.5121 29.1302 47.7636 27 47.7636C24.8698 47.7636 23.1429 49.5121 23.1429 51.669C23.1429 53.826 24.8698 55.5745 27 55.5745Z" fill="#1570EF"/>
</svg>
