<svg width="216" height="206" viewBox="0 0 216 206" fill="none" xmlns="http://www.w3.org/2000/svg">
<path d="M195.629 208.624C191.204 209.018 188.782 200.769 195.629 196.494C201.678 191.872 215.725 195.27 219.781 208.624C224.582 221.202 215.366 241.104 195.629 245.016C176.652 249.999 151.051 234.95 147.324 208.624C142.194 183.116 162.966 151.508 195.629 147.972C227.495 142.612 264.727 169.368 268.086 208.624C273.583 247.119 241.189 290.334 195.629 293.538C150.867 299.238 102.009 260.867 99.0196 208.624C93.1546 157.153 137.18 102.292 195.629 99.4501C253.318 93.3963 313.738 143.405 316.391 208.624C322.586 273.02 267.006 339.596 195.629 342.06C125.05 348.483 52.9992 286.792 50.7155 208.624C44.1512 131.243 111.356 53.0538 195.629 50.9281C279.104 44.1734 362.771 117.473 364.695 208.624C371.627 298.96 292.79 388.826 195.629 390.582C99.2268 397.713 3.9975 312.723 2.40986 208.624C-4.85886 105.342 85.5411 3.79235 195.629 2.40609C304.92 -5.06471 411.781 91.5556 413 208.624" stroke="#EAECF0" stroke-width="3" stroke-linecap="round"/>
</svg>
