<svg width="111" height="26" viewBox="0 0 111 26" fill="none" xmlns="http://www.w3.org/2000/svg">
<path d="M109 24C103.648 24 103.648 1.99999 98.2962 1.99999C92.9443 1.99999 92.9443 24 87.5925 24C82.2406 24 82.2406 1.99999 76.9012 1.99999C71.5492 1.99999 71.5492 24 66.21 24C60.858 24 60.858 1.99999 55.5188 1.99999C50.1668 2 50.1668 24 44.8152 24C39.4632 24 39.4632 2 34.1112 2C28.7596 2 28.7596 24 23.4076 24C18.0556 24 18.0556 2 12.7036 2C7.35201 2 7.352 24 2 24" stroke="#1570EF" stroke-width="3" stroke-miterlimit="10" stroke-linecap="round"/>
</svg>
