<svg width="24" height="24" viewBox="0 0 24 24" fill="none" xmlns="http://www.w3.org/2000/svg">
<path d="M13.6667 6.55556C14.6485 6.55556 15.4444 7.35149 15.4444 8.33333M19 8.33333C19 11.2789 16.6122 13.6667 13.6667 13.6667C13.1278 13.6667 12.6077 13.5868 12.1174 13.4382L10.1111 15.4444H8.33333V17.2222H6.55556V19H3.88889C3.39797 19 3 18.602 3 18.1111V15.8126C3 15.5769 3.09365 15.3508 3.26035 15.1841L8.56184 9.8826C8.41324 9.39231 8.33333 8.87215 8.33333 8.33333C8.33333 5.38781 10.7211 3 13.6667 3C16.6122 3 19 5.38781 19 8.33333Z" stroke="#98A2B3" stroke-width="2" stroke-linecap="round" stroke-linejoin="round"/>
</svg>
