<svg width="131" height="109" viewBox="0 0 131 109" fill="none" xmlns="http://www.w3.org/2000/svg">
<path d="M52.7808 4.14099C53.577 2.1357 53.9751 1.13306 54.8096 0.566528C55.6441 0 56.7229 0 58.8805 0H65.5H72.1194C74.277 0 75.3558 0 76.1903 0.566528C77.0248 1.13306 77.4229 2.1357 78.2191 4.14099L84.0823 18.9076C85.6992 22.9797 86.5076 25.0158 85.5312 26.4541C84.5547 27.8924 82.364 27.8924 77.9826 27.8924H53.0173C48.6359 27.8924 46.4452 27.8924 45.4688 26.4541C44.4923 25.0158 45.3007 22.9797 46.9176 18.9076L52.7808 4.14099Z" fill="#1570EF"/>
<path fill-rule="evenodd" clip-rule="evenodd" d="M57.6686 34.4582C61.9936 30.079 69.0059 30.079 73.3309 34.4582C77.6559 38.8374 77.6559 45.9375 73.3309 50.3167L67.8345 55.8819C66.5498 57.1827 64.4497 57.1827 63.165 55.8819L57.6686 50.3167C53.3435 45.9375 53.3435 38.8374 57.6686 34.4582ZM65.4997 45.5913C67.2473 45.5913 68.664 44.1569 68.664 42.3874C68.664 40.618 67.2473 39.1836 65.4997 39.1836C63.7522 39.1836 62.3355 40.618 62.3355 42.3874C62.3355 44.1569 63.7522 45.5913 65.4997 45.5913Z" fill="#1570EF"/>
<path d="M15.9229 82.6404V74.9675H20.087V94.2461H15.9229V86.5732H7.09328V94.2461H2.9291V74.9675H7.09328V82.6404H15.9229ZM41.2284 91.817C39.2749 93.7706 36.8715 94.7473 34.0182 94.7473C31.165 94.7473 28.7616 93.7706 26.808 91.817C24.8288 89.8377 23.8391 87.4343 23.8391 84.6068C23.8391 81.7793 24.8288 79.3759 26.808 77.3966C28.7616 75.443 31.165 74.4663 34.0182 74.4663C36.8715 74.4663 39.2749 75.443 41.2284 77.3966C43.2077 79.3759 44.1973 81.7793 44.1973 84.6068C44.1973 87.4343 43.2077 89.8377 41.2284 91.817ZM28.0033 84.6068C28.0033 86.3547 28.5817 87.807 29.7384 88.9638C30.8951 90.1205 32.3217 90.6988 34.0182 90.6988C35.7148 90.6988 37.1414 90.1205 38.2981 88.9638C39.4548 87.807 40.0332 86.3547 40.0332 84.6068C40.0332 82.8589 39.4548 81.4066 38.2981 80.2498C37.1414 79.0931 35.7148 78.5148 34.0182 78.5148C32.3217 78.5148 30.8951 79.0931 29.7384 80.2498C28.5817 81.4066 28.0033 82.8589 28.0033 84.6068ZM59.3075 83.7971V74.9675H63.4717V94.2461H59.3075V87.7299C57.7909 88.2954 56.1715 88.5782 54.4493 88.5782C52.0074 88.5782 50.1052 87.987 48.7429 86.8046C47.3805 85.5964 46.6993 83.8614 46.6993 81.5993V74.9675H50.8635V81.2138C50.8635 83.5272 52.2387 84.6839 54.9891 84.6839C56.5571 84.6839 57.9966 84.3883 59.3075 83.7971ZM81.327 82.6404V74.9675H85.4912V94.2461H81.327V86.5732H72.4974V94.2461H68.3332V74.9675H72.4974V82.6404H81.327ZM94.4099 87.1901L104.281 74.9675H107.481V94.2461H103.394V81.9849L93.5231 94.2461H90.3229V74.9675H94.4099V87.1901ZM120.564 84.414L129.355 94.2461H124.381L116.477 85.3394V94.2461H112.313V74.9675H116.477V83.4886L123.957 74.9675H129.046L120.564 84.414Z" fill="#1570EF"/>
</svg>
