<svg width="57" height="81" viewBox="0 0 57 81" fill="none" xmlns="http://www.w3.org/2000/svg">
<path opacity="0.25" d="M64.9705 68.9894C63.5087 69.1191 62.7082 66.4048 64.9705 64.9979C66.969 63.4772 71.6097 64.5953 72.9495 68.9894C74.5356 73.1281 71.4909 79.6769 64.9705 80.964C58.7009 82.6039 50.2429 77.6519 49.0116 68.9894C47.317 60.5961 54.1796 50.1953 64.9705 49.0318C75.4981 47.2682 87.7986 56.0723 88.9084 68.9894C90.7245 81.656 80.0222 95.876 64.9705 96.9301C50.1822 98.8058 34.0409 86.1797 33.0532 68.9894C31.1155 52.0529 45.6602 34.001 64.9705 33.0658C84.0295 31.0739 103.991 47.5292 104.867 68.9894C106.914 90.1789 88.5514 112.086 64.9705 112.896C41.653 115.01 17.8492 94.7103 17.0947 68.9894C14.926 43.5272 37.1289 17.7992 64.9705 17.0997C92.5483 14.8771 120.19 38.9964 120.826 68.9894C123.115 98.7145 97.07 128.285 64.9705 128.862C33.1216 131.209 1.66031 103.243 1.13579 68.9894C-1.26561 35.0045 28.6002 1.58977 64.9705 1.13362C101.077 -1.32464 136.381 30.4681 136.784 68.9894" stroke="#1570EF" stroke-width="2" stroke-linecap="round"/>
</svg>
